<svg width="270" height="37" viewBox="0 0 270 37" fill="none" xmlns="http://www.w3.org/2000/svg">
<path d="M21.2956 14.0602C21.3466 17.4589 20.443 20.8086 18.6787 23.7611C16.551 27.2894 13.6378 29.0535 9.93912 29.0535C6.97909 29.0535 4.58268 27.6775 2.74989 24.9253C0.917091 22.1732 0.000694043 18.7528 0.000694043 14.664C-0.0296834 11.2292 0.937672 7.85355 2.79536 4.91184C4.86518 1.64138 7.4242 0.00483219 10.4724 0.00220109C12.9914 -0.0505629 15.4306 0.847114 17.2607 2.50043C19.9478 4.9 21.2928 8.75325 21.2956 14.0602ZM17.5252 14.8495C17.5252 11.266 17.0664 8.55592 16.1486 6.71941C15.0461 4.51717 13.2423 3.41606 10.737 3.41606C8.75814 3.41606 7.1541 4.5869 5.92489 6.92858C4.65814 9.43597 4.02655 12.1925 4.08107 14.9758C4.08107 18.3094 4.60611 20.8866 5.65617 22.7073C6.70624 24.528 8.2524 25.4384 10.2947 25.4384C12.6015 25.4384 14.4343 24.2097 15.793 21.7522C16.9551 19.6276 17.5501 17.262 17.5252 14.8653V14.8495Z" fill="white"/>
<path d="M40.3745 19.0608L40.4613 25.1583V26.6423C40.4613 27.6566 40.4613 28.2644 40.4158 28.4617C40.3001 29.2826 39.9156 29.6891 39.2624 29.6891C38.2868 29.6891 37.6074 29.4352 37.2243 28.9274C36.8921 28.3565 36.7091 27.7174 36.691 27.0646C36.691 26.6147 36.6166 25.6241 36.4677 24.1006C36.3189 22.5772 36.2486 21.2354 36.2486 20.0751C35.5876 20.1729 34.9206 20.2296 34.2518 20.2448H33.1852C32.8471 20.2464 32.509 20.2319 32.1724 20.2014H31.6763C29.3491 20.1946 27.1033 19.3828 25.3552 17.9163C23.4507 16.3929 22.4971 14.8392 22.4944 13.2553V7.96284C22.4944 6.26842 22.5095 4.64503 22.5399 3.09269C22.5602 2.52897 22.787 1.98991 23.1806 1.56929C23.3894 1.31927 23.6568 1.11968 23.9613 0.98667C24.2659 0.853656 24.5989 0.790954 24.9335 0.803639C25.8802 0.803639 26.4425 1.59297 26.6202 3.17162C26.6781 3.67942 26.7071 4.49901 26.7071 5.63038V11.4083C26.696 12.1571 26.879 12.8969 27.2396 13.562C27.6002 14.2272 28.1273 14.7969 28.7741 15.2207C29.8804 16.0342 31.2348 16.4805 32.6313 16.4915C33.0778 16.4915 33.578 16.4915 34.1402 16.4915C34.7025 16.4915 35.3226 16.5152 36.0047 16.5152C36.0047 15.4417 36.0268 13.6 36.0709 10.9899C36.115 8.37987 36.1673 6.00136 36.228 3.85439V3.17557C36.1842 2.61923 36.306 2.0624 36.5794 1.56929C36.9349 1.06149 37.6446 0.80627 38.7084 0.803639C38.9608 0.775923 39.2165 0.80786 39.453 0.896637C39.6894 0.985415 39.8994 1.12831 40.0644 1.31276C40.3538 1.79067 40.485 2.34101 40.4406 2.89141C40.4406 3.2032 40.4117 3.81887 40.3538 4.73449C40.2959 5.65011 40.2629 6.25395 40.2629 6.53416C40.2629 7.74972 40.278 9.72304 40.3083 12.4541C40.3387 15.1852 40.3607 17.3874 40.3745 19.0608Z" fill="white"/>
<path d="M59.8711 26.8511C59.8711 27.8693 59.1972 28.4534 57.8495 28.6113C56.5018 28.7691 54.5835 28.9191 52.0617 29.077C49.5399 29.2348 47.4687 29.3098 45.7861 29.3098C45.386 29.3062 45.0004 29.1662 44.6988 28.9152C44.531 28.7855 44.3972 28.6202 44.3082 28.4325C44.2192 28.2447 44.1774 28.0397 44.1862 27.8338C44.176 27.4351 44.2219 27.0369 44.3226 26.6498C44.4587 26.2456 44.6217 25.8502 44.8104 25.4658C44.8104 23.4609 44.7429 20.5522 44.6079 16.7398C44.4728 12.9273 44.335 8.94649 44.1944 4.79726C43.995 4.56988 43.8243 4.32084 43.6859 4.05529C43.5731 3.77937 43.5348 3.48081 43.5743 3.18703C43.5536 2.78557 43.6618 2.38763 43.8844 2.04646C44.0327 1.80806 44.2661 1.6287 44.5417 1.54129C45.6811 1.29765 46.8376 1.13408 48.002 1.0519C49.3042 0.957184 50.8959 0.905877 52.7935 0.905877H54.3479C54.8481 0.905877 55.3525 0.905878 55.8568 0.862465C56.8346 0.819053 57.813 0.933807 58.7507 1.20187C59.0523 1.30827 59.3081 1.50779 59.4774 1.76877C59.6466 2.02975 59.7197 2.33723 59.6851 2.6424C59.6929 2.87819 59.6355 3.11179 59.5187 3.31966C59.4018 3.52752 59.2296 3.70231 59.0195 3.82639C58.5616 4.10334 58.0388 4.26743 57.4981 4.30393H54.2569C53.1324 4.30393 52.0162 4.31182 50.9083 4.32761C49.8003 4.3434 48.9211 4.3776 48.2707 4.43022C48.2707 5.53002 48.3079 7.02053 48.3823 8.90176C48.4526 10.7764 48.5188 12.4537 48.5808 13.8745C49.7356 13.764 50.962 13.7009 52.2601 13.6851L54.968 13.6654C55.7715 13.633 56.5761 13.6899 57.3658 13.8351C57.7133 13.8975 58.0256 14.0776 58.2451 14.3422C58.4646 14.6069 58.5766 14.9383 58.5606 15.2756C58.5606 16.0097 58.267 16.4872 57.6759 16.7122C57.0847 16.9371 56.0015 17.0516 54.4347 17.0516C53.4287 17.0516 52.3566 17.066 51.2183 17.095C50.0801 17.1239 49.2298 17.166 48.6676 17.2213V25.7105C49.4365 25.7105 50.3543 25.6789 51.4209 25.6237C55.1444 25.4263 57.1991 25.3277 57.5849 25.3277C58.5895 25.3277 59.2179 25.4184 59.4701 25.6039C59.7223 25.7894 59.8711 26.2038 59.8711 26.8511Z" fill="white"/>
<path d="M81.1452 20.2013C81.219 22.4781 80.4653 24.7092 79.012 26.5159C78.3068 27.3986 77.3925 28.1092 76.344 28.5894C75.2956 29.0696 74.1428 29.3058 72.9803 29.2785H66.4153C65.8596 29.2968 65.3038 29.2463 64.7616 29.1286C64.3351 29.0089 63.946 28.7906 63.6289 28.4931C63.3626 28.2925 63.143 28.0411 62.9839 27.7551C62.8038 27.1203 62.7299 26.4623 62.7648 25.8055C62.7648 23.8006 62.7566 21.6049 62.74 19.2185C62.7235 16.8321 62.7014 14.2695 62.6739 11.5305L62.0992 3.44382C62.0027 3.31202 61.8903 3.19148 61.7644 3.08468C61.5849 2.92065 61.4685 2.70382 61.4336 2.469C61.3138 1.98751 61.6238 1.48234 62.3638 0.945596C62.4837 0.85877 62.6615 0.748264 62.8971 0.606185C63.283 0.519359 64.8732 0.462791 67.6679 0.43648L72.079 0.393066C74.3004 0.393066 75.9431 0.656176 77.0069 1.18239C78.4539 1.91647 79.1773 3.23202 79.1773 5.12904C79.1682 6.47581 78.8714 7.80665 78.305 9.04016C77.6243 10.5662 76.7658 11.5555 75.7295 12.008C76.9449 12.2882 78.0653 13.0499 79.1029 14.2931C80.4778 15.9784 81.1993 18.0659 81.1452 20.2013ZM75.3574 6.31303C75.3574 5.12377 74.7373 4.28972 73.497 3.81086C72.3667 3.45819 71.1796 3.3005 69.9913 3.34515C69.1314 3.34515 68.3624 3.35305 67.6845 3.36883C67.073 3.37328 66.4635 3.43675 65.8654 3.55827C65.9233 4.26341 65.9757 5.34347 66.0225 6.79846C66.0639 8.25083 66.0887 9.60058 66.0887 10.8438C66.6799 10.8438 67.2462 10.8438 67.7961 10.8438C68.3459 10.8438 68.8544 10.8675 69.3257 10.8675H71.1447C71.7359 10.7806 72.1948 10.7254 72.5214 10.6977C73.7616 9.79265 74.5003 9.15724 74.7373 8.79152C75.1752 8.03358 75.3949 7.17838 75.3739 6.31303H75.3574ZM77.1351 20.5407C77.2045 18.8965 76.6263 17.2871 75.5145 16.0297C75.017 15.4674 74.3945 15.018 73.6923 14.7142C72.99 14.4104 72.2256 14.2598 71.4548 14.2734C70.7437 14.2734 69.8301 14.301 68.7056 14.3602C67.5811 14.4194 66.7212 14.4431 66.13 14.4431L66.7088 25.9199C67.4197 26.0442 68.1375 26.1298 68.8585 26.1765C69.6854 26.2317 70.4047 26.2593 71.0579 26.2593C72.9872 26.2593 74.4796 25.7331 75.5352 24.6807C76.5908 23.6283 77.1296 22.2482 77.1516 20.5407H77.1351Z" fill="white"/>
<path d="M102.527 3.77135L102.481 17.5846C102.481 21.5654 102.393 24.2768 102.217 25.7186C101.919 28.059 101.287 29.2311 100.307 29.2311C100.025 29.2472 99.744 29.2022 99.4834 29.0997C99.2228 28.9972 98.9898 28.8397 98.802 28.6391C98.4388 28.2241 98.2489 27.6957 98.2687 27.1552V17.8727L98.6242 8.93749C98.3266 9.50318 97.7492 10.5898 96.892 12.1974C96.1507 13.6103 95.3238 15.135 94.4116 16.7716C92.4823 20.2446 90.5751 23.7032 88.69 27.1473C87.8631 28.5339 86.769 29.2258 85.4075 29.2232C85.1674 29.2097 84.9353 29.1363 84.7343 29.0102C84.5333 28.8842 84.3705 28.7099 84.2623 28.5049C83.955 28.0809 83.7853 27.5799 83.7745 27.0644L83.729 23.0388C83.729 20.4077 83.7579 16.9636 83.8158 12.7065C83.8737 8.44943 83.904 5.96436 83.9068 5.25133C83.8621 4.21656 83.9369 3.18023 84.13 2.16112C84.4249 1.1692 85.045 0.674551 85.9904 0.677182C86.8503 0.677182 87.4249 0.945553 87.7226 1.46651C87.9755 2.08654 88.0814 2.75238 88.0326 3.41615V4.76985C88.0326 6.55109 87.9431 10.4201 87.7639 16.3769C87.706 18.3502 87.6482 20.3235 87.5903 22.2613C88.0312 21.2457 88.8581 19.6671 90.0707 17.5254C90.8976 16.0572 91.5342 14.8864 91.9807 14.0129C92.78 12.4579 93.9334 10.353 95.441 7.69825C96.9485 5.04348 97.8953 3.30038 98.2811 2.46896C98.4878 1.5928 98.7441 1.04422 99.0583 0.815314C99.5616 0.547246 100.138 0.430334 100.712 0.47985C101.922 0.471957 102.527 1.56912 102.527 3.77135Z" fill="white"/>
<path d="M107.054 26.6419C107.2 25.8762 107.475 24.7462 107.881 23.2517C108.286 21.7573 108.758 20.1484 109.299 18.425L112.982 6.14304C113.632 4.05132 114.164 2.66737 114.578 1.99118C115.198 0.972943 116.012 0.467773 117.017 0.467773C117.935 0.467773 118.631 1.07424 119.105 2.28717C119.22 2.57133 119.546 3.85662 120.08 6.14304C120.259 6.93237 120.791 9.3464 121.676 13.3851C121.855 14.1745 122.24 15.8544 122.829 18.425L124.603 26.6419C126.203 26.6419 127.249 26.8787 127.753 27.3602C127.915 27.5402 128.037 27.7491 128.113 27.9748C128.189 28.2004 128.217 28.4383 128.196 28.6744V33.7537C128.196 34.7444 128.022 35.435 127.666 35.8297C127.454 36.0388 127.195 36.2004 126.909 36.3028C126.623 36.4051 126.317 36.4457 126.013 36.4217C124.825 36.4217 124.232 35.4061 124.235 33.3749C124.235 32.8934 124.235 32.4435 124.214 32.0172C124.194 31.591 124.214 31.2003 124.214 30.8332V30.4109L117.381 30.2846L107.583 30.3517L107.496 33.9945C107.496 34.9548 107.327 35.6126 106.988 35.9678C106.782 36.1631 106.535 36.3136 106.263 36.4089C105.992 36.5043 105.701 36.5423 105.412 36.5203C104.225 36.5203 103.632 35.5034 103.635 33.4696L103.726 28.4731C103.71 28.2191 103.751 27.9648 103.847 27.7272C103.942 27.4896 104.09 27.2743 104.28 27.0958C104.662 26.7672 105.163 26.5931 105.677 26.6103L107.054 26.6419ZM120.585 26.6419C120.378 25.4816 120.185 24.5212 120.006 23.7608C119.267 20.5114 118.868 18.7328 118.807 18.425C118.394 16.3201 117.995 14.3363 117.612 12.4735C117.229 10.6106 116.829 8.97936 116.413 7.57962C115.939 9.05303 115.303 11.1711 114.503 13.9337C114.005 15.6597 113.495 17.4028 112.974 19.163C112.453 20.9232 112.09 22.2151 111.886 23.0386C111.531 24.2542 111.236 25.4553 111.002 26.6419H120.585Z" fill="white"/>
<path d="M147.601 18.6777L147.688 24.7753V25.9198C147.688 26.2868 147.688 26.642 147.733 26.9775C147.746 27.416 147.731 27.8549 147.688 28.2917C147.668 28.5421 147.545 28.7747 147.346 28.9388C147.147 29.1029 146.888 29.1853 146.625 29.1679C145.621 29.1679 144.947 28.9666 144.604 28.5562C144.21 27.9967 143.988 27.3433 143.963 26.6697C143.963 26.1921 143.901 24.9489 143.785 22.944C143.67 20.9391 143.608 19.3723 143.608 18.2436H133.491C133.458 18.5119 133.458 18.9066 133.458 19.4631V23.5913C133.458 24.5227 133.472 25.4265 133.5 26.3026C133.5 27.6024 133.389 28.4627 133.169 28.8837C132.946 29.31 132.421 29.5191 131.594 29.5191C130.767 29.5191 130.172 29.3376 129.907 28.9706C129.642 28.6035 129.494 27.7866 129.494 26.5552C129.494 24.0425 129.502 21.297 129.518 18.3186C129.535 15.3402 129.557 12.1276 129.585 8.68085C129.585 7.6113 129.585 6.47467 129.63 5.27489C129.676 4.07511 129.671 3.23447 129.671 2.75298C129.671 2.07416 129.808 1.62424 130.085 1.39928C130.456 1.14067 130.913 1.02 131.371 1.05987C132.17 1.05987 132.703 1.19143 132.97 1.45454C133.271 1.80432 133.419 2.25075 133.384 2.70168C133.384 3.01346 133.363 3.43181 133.318 3.95276C133.272 4.47372 133.252 4.74209 133.252 4.77761C133.252 6.41416 133.274 7.96782 133.318 9.4386C133.362 10.9094 133.428 12.6591 133.516 14.6876H143.723C143.723 14.1614 143.708 12.3197 143.678 9.16234C143.648 6.00502 143.632 4.06327 143.632 3.33709C143.605 2.70611 143.694 2.07542 143.897 1.47427C143.993 1.15424 144.197 0.873455 144.477 0.675703C144.758 0.477951 145.099 0.374348 145.447 0.38105C145.829 0.349671 146.211 0.440975 146.532 0.640466C146.854 0.839957 147.096 1.1362 147.221 1.48216C147.427 2.00838 147.531 3.05293 147.531 4.6158V6.14315C147.531 7.35346 147.546 9.32678 147.576 12.0631C147.607 14.7995 147.615 17.0043 147.601 18.6777Z" fill="white"/>
<path d="M171.248 14.0605C171.298 17.4596 170.393 20.8094 168.627 23.7614C166.5 27.2897 163.586 29.0538 159.888 29.0538C156.931 29.0538 154.535 27.6778 152.703 24.9256C150.87 22.1735 149.954 18.7531 149.954 14.6644C149.925 11.2323 150.892 7.85954 152.748 4.92012C154.815 1.64967 157.373 0.013133 160.421 0.0105019C162.94 -0.0422619 165.379 0.855411 167.209 2.50873C169.902 4.90302 171.248 8.75363 171.248 14.0605ZM167.474 14.8499C167.474 11.2663 167.016 8.55629 166.101 6.71979C164.999 4.51757 163.195 3.41645 160.69 3.41645C158.705 3.41645 157.1 4.58729 155.874 6.92896C154.608 9.43667 153.978 12.1932 154.034 14.9762C154.034 18.3098 154.559 20.8869 155.609 22.7076C156.659 24.5284 158.204 25.4387 160.243 25.4387C162.55 25.4387 164.384 24.21 165.746 21.7525C166.906 19.6276 167.5 17.262 167.474 14.8657V14.8499Z" fill="white"/>
<path d="M182.381 26.5988C182.384 26.9526 182.286 27.3005 182.099 27.606C181.912 27.9115 181.643 28.1634 181.319 28.3354C180.756 28.7115 180.095 28.9314 179.409 28.9708C178.919 28.9667 178.438 28.844 178.012 28.6141C177.585 28.3843 177.227 28.0548 176.97 27.6565C176.523 27.1532 176.245 26.533 176.172 25.8766C176.211 25.3748 176.449 24.9061 176.838 24.5663C177.12 24.2632 177.47 24.0234 177.86 23.8638C178.251 23.7042 178.674 23.6287 179.099 23.6428C179.926 23.6428 180.711 24.0374 181.451 24.8702C182.071 25.5687 182.381 26.145 182.381 26.5988Z" fill="white"/>
<path d="M206.384 21.1363C206.384 22.209 206.173 23.2722 205.76 24.2699C205.434 25.089 204.986 25.8587 204.429 26.5551C203.671 27.5415 202.642 28.309 201.456 28.7731C200.158 29.2626 198.771 29.5014 197.376 29.4756C195.358 29.4381 193.355 29.123 191.431 28.5402C188.504 27.7219 187.041 26.6919 187.041 25.45C187.027 24.8212 187.139 24.1956 187.371 23.6069C187.462 23.3607 187.635 23.1498 187.863 23.0071C188.092 22.8643 188.364 22.7977 188.636 22.8176C189.307 22.7921 189.971 22.9539 190.546 23.2833C191.076 23.7056 191.477 24.0292 191.741 24.2581C192.332 24.7259 192.991 25.11 193.697 25.3987C194.642 25.8155 195.669 26.0361 196.71 26.0459C197.597 26.0591 198.48 25.9379 199.327 25.6868C200.063 25.4625 200.723 25.0536 201.237 24.5028C201.885 23.8819 202.21 22.7808 202.213 21.1995C202.242 20.399 202.081 19.6027 201.743 18.8695C201.406 18.1364 200.899 17.4854 200.262 16.9647C199.964 16.7016 198.514 15.8544 195.912 14.4231C194.308 13.5899 192.83 12.5501 191.522 11.3329C190.072 9.91999 189.347 8.49394 189.347 7.05473C189.316 6.15951 189.436 5.26534 189.703 4.40654C190.035 3.61465 190.551 2.90491 191.212 2.33061C191.884 1.71247 192.674 1.22342 193.539 0.890088C194.612 0.518428 195.748 0.345628 196.888 0.380972C198.544 0.422979 200.168 0.828086 201.634 1.56496C203.288 2.35429 204.115 3.22255 204.115 4.16974C204.159 4.58044 204.033 4.9913 203.763 5.31426C203.523 5.53922 203.064 5.65368 202.386 5.65368C201.835 5.65368 200.917 5.28664 199.633 4.55256C198.349 3.81849 197.403 3.45145 196.797 3.45145C196.248 3.44352 195.703 3.5443 195.197 3.74745C194.792 3.92684 194.413 4.15497 194.069 4.42627C193.86 4.56361 193.683 4.73894 193.546 4.94214C193.409 5.14535 193.315 5.37242 193.271 5.61026C193.2 6.01604 193.163 6.4264 193.159 6.83767C193.159 7.65857 193.928 8.63339 195.466 9.76212C196.144 10.2726 197.592 11.1619 199.811 12.43C202.03 13.6982 203.539 14.7704 204.338 15.6466C205.717 17.1668 206.447 19.1262 206.384 21.1363Z" fill="white"/>
<path d="M228.299 18.6778L228.386 24.7754C228.432 25.9134 228.328 27.0524 228.076 28.1655C228.023 28.4522 227.865 28.7112 227.628 28.8952C227.392 29.0793 227.095 29.1761 226.79 29.168C225.815 29.168 225.134 28.9141 224.748 28.4063C224.419 27.8342 224.238 27.1957 224.219 26.5435C224.219 25.5568 224.204 24.7241 224.173 24.0452C224.024 20.7143 223.95 18.837 223.95 18.4134C223.181 18.5239 221.399 18.637 218.605 18.7528C215.81 18.8686 213.777 18.9238 212.507 18.9186C212.451 19.5037 212.428 20.0913 212.436 20.6788C212.436 21.7312 212.436 22.5995 212.436 23.2835V26.2909C212.436 27.5906 212.326 28.451 212.106 28.872C211.883 29.2982 211.357 29.5074 210.531 29.5074C209.704 29.5074 209.109 29.3258 208.844 28.9588C208.579 28.5918 208.431 27.7748 208.431 26.5435C208.431 24.0308 208.439 21.2852 208.455 18.3068C208.472 15.3285 208.494 12.1159 208.521 8.66917C208.521 7.60095 208.535 6.46563 208.563 5.26322C208.59 4.06082 208.606 3.22018 208.608 2.74133C208.608 2.06251 208.741 1.61259 209.022 1.38763C209.393 1.12902 209.85 1.00835 210.307 1.04822C211.105 1.04822 211.639 1.18241 211.903 1.44288C212.205 1.79187 212.353 2.2389 212.317 2.69002C212.317 3.0018 212.317 3.42015 212.25 3.9411C212.184 4.46206 212.184 4.73043 212.184 4.76595C212.184 5.83943 212.198 7.31547 212.226 9.19407C212.253 11.0727 212.299 13.0986 212.362 15.2719C213.465 15.1561 215.416 15.0246 218.216 14.8772C221.016 14.7299 222.91 14.6588 223.896 14.6641C223.896 14.1379 223.881 12.2961 223.851 9.13882C223.82 5.98151 223.805 4.03977 223.805 3.31359V2.67029C223.763 2.11233 223.886 1.5543 224.161 1.06006C224.516 0.549629 225.226 0.295729 226.29 0.29836C227.088 0.29836 227.621 0.550945 227.89 1.06006C228.21 1.84072 228.351 2.67779 228.303 3.51487C228.303 3.9411 228.303 4.37128 228.303 4.80936C228.303 5.24744 228.278 5.68946 228.278 6.14332C228.278 7.35362 228.294 9.32694 228.324 12.0633C228.354 14.7996 228.346 17.0045 228.299 18.6778Z" fill="white"/>
<path d="M251.5 14.0605C251.551 17.4593 250.647 20.809 248.883 23.7614C246.752 27.2897 243.839 29.0538 240.143 29.0538C237.189 29.0538 234.794 27.6778 232.958 24.9256C231.123 22.1735 230.205 18.7531 230.205 14.6644C230.178 11.2325 231.145 7.86027 233 4.92012C235.069 1.64967 237.628 0.013133 240.677 0.0105019C243.196 -0.0422619 245.635 0.855411 247.465 2.50873C250.158 4.90302 251.503 8.75363 251.5 14.0605ZM247.729 14.8499C247.729 11.2663 247.271 8.55629 246.353 6.71979C245.25 4.51757 243.446 3.41645 240.941 3.41645C238.962 3.41645 237.358 4.58729 236.129 6.92896C234.864 9.43667 234.234 12.1932 234.289 14.9762C234.289 18.3098 234.814 20.8869 235.865 22.7076C236.915 24.5284 238.459 25.4387 240.499 25.4387C242.806 25.4387 244.64 24.21 246.001 21.7525C247.162 19.6276 247.756 17.262 247.729 14.8657V14.8499Z" fill="white"/>
<path d="M270 7.96252C270 11.5487 268.728 14.0193 266.184 15.3743C264.321 16.3662 261.349 16.8609 257.267 16.8582V19.6209C257.267 20.5102 257.282 21.3784 257.312 22.2257C257.312 22.8453 257.341 23.828 257.399 25.1659C257.457 26.5038 257.49 27.2221 257.49 27.305C257.49 28.4916 256.809 29.0849 255.448 29.0849C254.679 29.0849 254.162 28.8599 253.898 28.4061C253.614 27.9146 253.472 27.3606 253.484 26.7998C253.484 25.7816 253.403 24.1648 253.24 21.9494C253.078 19.734 253 18.1935 253.009 17.3279C253.009 14.5889 252.994 12.1815 252.963 10.1055C252.933 8.02961 252.904 6.11681 252.876 4.36714C252.876 1.88076 253.764 0.638882 255.539 0.641513L262.815 0.554688C265.268 0.554688 267.116 1.30323 268.359 2.80032C269.456 4.12376 270.003 5.84449 270 7.96252ZM265.965 8.25852C265.965 6.47727 265.447 5.22092 264.411 4.48948C263.551 3.89749 262.173 3.60149 260.277 3.60149H259.177C258.849 3.60149 258.065 3.67121 256.825 3.81066C256.796 4.20532 256.771 4.59999 256.758 4.99465C256.746 5.38931 256.734 5.78398 256.734 6.13917C256.734 7.43893 256.749 8.70843 256.779 9.94767C256.809 11.1869 256.84 12.3709 256.87 13.4996C260.125 13.4996 262.283 13.2878 263.344 12.8642C265.089 12.1565 265.962 10.6186 265.965 8.25062V8.25852Z" fill="white"/>
</svg>
