<svg xmlns="http://www.w3.org/2000/svg" viewBox="0 0 65 65">
  <g>
    <line x1="33.57" y1="31.31" x2="17.59" y2="47.3" fill="none" stroke="#001652" stroke-linecap="round" stroke-linejoin="round" stroke-width="3"/>
    <line x1="23.75" y1="29.1" x2="15.59" y2="37.27" fill="none" stroke="#001652" stroke-linecap="round" stroke-linejoin="round" stroke-width="3"/>
    <path d="M55.61,32.83V22.22a4.37,4.37,0,0,0-4.35-4.35H15.49a4.37,4.37,0,0,1-4.35-4.35m-6.29,0V53.41A4.37,4.37,0,0,0,9.2,57.76H51.26a4.36,4.36,0,0,0,4.35-4.35V42.8" fill="none" stroke="#001652" stroke-linecap="round" stroke-linejoin="round" stroke-width="3" fill-rule="evenodd"/>
    <path d="M4.85,13.52V11.59A4.37,4.37,0,0,1,9.2,7.24H44a4.36,4.36,0,0,1,4.35,4.35" fill="none" stroke="#001652" stroke-linecap="round" stroke-linejoin="round" stroke-width="3" fill-rule="evenodd"/>
    <path d="M55.07,42.8H46.34a2.19,2.19,0,0,1-2.17-2.17V35a2.17,2.17,0,0,1,2.17-2.17H58A2.19,2.19,0,0,1,60.15,35v5.63A2.21,2.21,0,0,1,58,42.8H52.16" fill="none" stroke="#001652" stroke-linecap="round" stroke-linejoin="round" stroke-width="3" fill-rule="evenodd"/>
    <line x1="49.67" y1="37.83" x2="50.22" y2="37.83" fill="none" stroke="#001652" stroke-linecap="round" stroke-linejoin="round" stroke-width="3"/>
  </g>
</svg>
