<svg xmlns="http://www.w3.org/2000/svg" viewBox="0 0 290 85">
  <g id="ukrposhta">
    <g>
      <path id="path14" d="M51.78,48.2,26.32,42.43a14.1,14.1,0,1,1,10.61-1.82h0a.35.35,0,0,0,.12.63l11.33,2.56a.71.71,0,0,0,.72-.26h0A24.64,24.64,0,0,0,30.9,4.09l-1,0A28.17,28.17,0,0,0,6.35,48.38L29,80.73a.54.54,0,0,0,.43.22.52.52,0,0,0,.42-.22L52.1,49a.53.53,0,0,0,.09-.3.52.52,0,0,0-.41-.51" fill="#fabc26"/>
      <path id="path16" d="M73.57,19.2a.55.55,0,0,1,.55.27l7.55,12.89H82l6.42-12.71a.76.76,0,0,1,.77-.45h4.62a.49.49,0,0,1,.45.72L81,43.44a.79.79,0,0,1-.77.4H75.7c-.5,0-.54-.31-.36-.67l3.57-6.11L68.24,19.78c-.18-.31,0-.58.27-.58h5.06" fill="#2c2e2c"/>
      <path id="path18" d="M102.23,19.2a.57.57,0,0,1,.63.63V29.5L113,19.56a1.8,1.8,0,0,1,1.17-.36h5.52c.41,0,.54.36.23.67L109.15,30l11.49,13.16c.31.31.13.67-.28.67h-5.42a1.36,1.36,0,0,1-1.13-.45L105.2,33.24l-2.34,2.17v7.8a.57.57,0,0,1-.63.63h-4a.57.57,0,0,1-.63-.63V19.83a.57.57,0,0,1,.63-.63h4" fill="#2c2e2c"/>
      <path id="path20" d="M135.63,32.31c2.76,0,4.34-1.72,4.34-4.11s-1.58-4-4.34-4h-6.56v8.14Zm0-13.11c5.47,0,9.59,3.93,9.59,9,0,5.24-4.12,9.09-9.59,9.09h-6.56v5.92a.57.57,0,0,1-.63.63h-4a.57.57,0,0,1-.63-.63V19.83a.57.57,0,0,1,.63-.63h11.17" fill="#2c2e2c"/>
      <path id="path22" d="M169.94,19.2a.57.57,0,0,1,.63.63V43.21a.57.57,0,0,1-.63.63h-4a.57.57,0,0,1-.63-.63V24.13h-11V43.21a.57.57,0,0,1-.63.63h-4a.57.57,0,0,1-.63-.63V19.83a.57.57,0,0,1,.63-.63h20.17" fill="#2c2e2c"/>
      <path id="path24" d="M180.54,31.54a7.67,7.67,0,1,0,15.33,0,7.67,7.67,0,1,0-15.33,0m7.68-12.71a12.69,12.69,0,1,1-13,12.71,12.72,12.72,0,0,1,13-12.71" fill="#2c2e2c"/>
      <path id="path26" d="M218.72,38.92V19.83a.57.57,0,0,1,.63-.63h3.89a.57.57,0,0,1,.64.63V38.92h7.73V19.83a.57.57,0,0,1,.63-.63h3.89a.57.57,0,0,1,.63.63V43.21a.57.57,0,0,1-.63.63H206.46a.61.61,0,0,1-.63-.63V19.83a.57.57,0,0,1,.63-.63h3.89a.57.57,0,0,1,.64.63V38.92h7.73" fill="#2c2e2c"/>
      <path id="path28" d="M261.9,19.2a.57.57,0,0,1,.63.63v3.71a.57.57,0,0,1-.63.63H254v19a.57.57,0,0,1-.64.63h-4a.57.57,0,0,1-.63-.63v-19h-7.87a.57.57,0,0,1-.63-.63V19.83a.57.57,0,0,1,.63-.63h21" fill="#2c2e2c"/>
      <path id="path30" d="M270.85,34.21h8.59l-4-10.13H275ZM281.25,39H269l-1.72,4.34a.78.78,0,0,1-.77.54H262c-.45,0-.59-.22-.45-.63L272.2,19.56a.56.56,0,0,1,.59-.36H278a.56.56,0,0,1,.58.36l10.18,23.56a.51.51,0,0,1-.5.72h-4.29a1,1,0,0,1-.95-.63L281.25,39" fill="#2c2e2c"/>
      <path id="path32" d="M71.72,65V54.42h6.94v1.22H73.11V65H71.72" fill="#617171"/>
      <path id="path34" d="M82.08,59.68c0,2.64,1.44,4.35,3.68,4.35s3.65-1.72,3.65-4.35S88,55.39,85.73,55.39C83.24,55.39,82.08,57.43,82.08,59.68Zm8.73-.07c0,3.1-1.71,5.62-5.06,5.62s-5.06-2.58-5.06-5.65c0-3.29,2-5.41,5-5.41,3.28,0,5.08,2.3,5.08,5.44" fill="#617171"/>
      <path id="path36" d="M101.73,65h-1.4V55.64h-3.9l-.21,5.94c-.07,2.12-.84,3.62-2.44,3.62a3.08,3.08,0,0,1-1-.21V63.81a1.91,1.91,0,0,0,.75.14c.76,0,1.31-.41,1.38-3.09l.2-6.44h6.63V65" fill="#617171"/>
      <path id="path38" d="M106.41,59.68c0,2.64,1.44,4.35,3.68,4.35s3.65-1.72,3.65-4.35-1.44-4.29-3.68-4.29C107.57,55.39,106.41,57.43,106.41,59.68Zm8.73-.07c0,3.1-1.71,5.62-5.06,5.62S105,62.65,105,59.58c0-3.29,2-5.41,5-5.41,3.28,0,5.08,2.3,5.08,5.44" fill="#617171"/>
      <path id="path40" d="M119.79,63.81h2.79c1.41,0,2.79-.09,2.79-2s-1.62-1.82-3-1.82h-2.55Zm0-4.87h2.5c1.19,0,2.62-.09,2.62-1.67s-1.24-1.66-2.48-1.66h-2.64Zm3.14-4.52c1.75,0,3.37.7,3.37,2.64a2.37,2.37,0,0,1-1.56,2.27,2.52,2.52,0,0,1,2,2.67c0,2.43-2,3-4,3h-4.35V54.42h4.51" fill="#617171"/>
      <path id="path42" d="M138.48,65h-1.4V60H131.5V65h-1.39V54.42h1.39v4.4h5.58v-4.4h1.4V65" fill="#617171"/>
      <path id="path44" d="M146.27,55.76l-1.83,4.87h3.62ZM151.21,65h-1.56l-1.17-3.23H144L142.84,65h-1.48l4.15-10.56h1.57L151.21,65" fill="#617171"/>
      <path id="path46" d="M168.41,65H167V55.64h-5.58V65H160V54.42h8.37V65" fill="#617171"/>
      <path id="path48" d="M173.11,59.68c0,2.64,1.43,4.35,3.67,4.35s3.65-1.72,3.65-4.35-1.43-4.29-3.67-4.29C174.26,55.39,173.11,57.43,173.11,59.68Zm8.72-.07c0,3.1-1.71,5.62-5.06,5.62s-5.06-2.58-5.06-5.65c0-3.29,2-5.41,5-5.41,3.27,0,5.07,2.3,5.07,5.44" fill="#617171"/>
      <path id="path50" d="M185.11,54.42h1.4v9.34h4.69V54.42h1.39v9.34h4.69V54.42h1.39V65H185.11V54.42" fill="#617171"/>
      <path id="path52" d="M210.13,55.64h-3.55V65h-1.39V55.64h-3.55V54.42h8.49v1.22" fill="#617171"/>
      <path id="path54" d="M215.53,55.76l-1.82,4.87h3.62ZM220.47,65h-1.55l-1.18-3.23h-4.43L212.11,65h-1.49l4.16-10.56h1.57L220.47,65" fill="#617171"/>
      <path id="path56" d="M233.43,58.66,238.06,65h-1.78l-3.83-5.37-1.75,1.66V65h-1.4V54.42h1.4v5.24l5.35-5.24h1.83l-4.45,4.24" fill="#617171"/>
      <path id="path58" d="M242.4,59.48h2.68c1.35,0,2.39-.37,2.39-1.93s-1.2-1.93-2.58-1.93H242.4Zm2.95-5.06c2,0,3.52.85,3.52,3,0,2.39-1.55,3.19-3.61,3.19H242.4V65H241V54.42h4.35" fill="#617171"/>
      <path id="path60" d="M255,55.76l-1.83,4.87h3.62ZM260,65h-1.56l-1.17-3.23h-4.44L251.61,65h-1.48l4.15-10.56h1.57L260,65" fill="#617171"/>
      <path id="path62" d="M265.66,53.52h-1.34V52h1.34ZM264.28,65h-1.4V54.42h1.4Zm-1.43-11.46h-1.33V52h1.33v1.5" fill="#617171"/>
      <path id="path64" d="M276.5,65h-1.39V60h-5.58V65h-1.39V54.42h1.39v4.4h5.58v-4.4h1.39V65" fill="#617171"/>
      <path id="path66" d="M280.34,54.42h1.4v8.94h0L287,54.42h1.76V65h-1.39V56h0l-5.2,9h-1.75V54.42" fill="#617171"/>
    </g>
  </g>
</svg>
