<svg id="nova-poshta" xmlns="http://www.w3.org/2000/svg" viewBox="0 0 290 85">
  <g>
    <path id="path3433" d="M131.93,17.72h4.41c1.61,0,2.42.8,2.42,2.59v6.36h8.66V20.31c0-1.79.8-2.59,2.61-2.59h4.22V21.9h-1.8l-.2.21V40h-4.83V31.06h-8.66v9h-4.82V22.11a.21.21,0,0,0-.21-.21h-1.8Z" fill="#ed1c24" fill-rule="evenodd"/>
    <path d="M167.14,17.33h-.22a11.44,11.44,0,0,0-11.66,11.34,11.65,11.65,0,0,0,11.66,11.74h.22a11.65,11.65,0,0,0,11.67-11.74A11.44,11.44,0,0,0,167.14,17.33Zm0,18.5h-.22c-3.61,0-6.43-3.18-6.43-7.16a6.54,6.54,0,0,1,6.43-6.77h.22a6.55,6.55,0,0,1,6.44,6.77C173.58,32.65,170.76,35.83,167.14,35.83Z" fill="#ed1c24" fill-rule="evenodd"/>
    <path d="M166.73,46h-.22a11.45,11.45,0,0,0-11.66,11.35,11.65,11.65,0,0,0,11.66,11.74h.22A11.65,11.65,0,0,0,178.4,57.32,11.45,11.45,0,0,0,166.73,46Zm0,18.51h-.22c-3.62,0-6.43-3.18-6.43-7.16a6.54,6.54,0,0,1,6.43-6.77h.22a6.55,6.55,0,0,1,6.44,6.77C173.17,61.3,170.35,64.48,166.73,64.48Z" fill="#ed1c24" fill-rule="evenodd"/>
    <path d="M194.68,28.28a6.17,6.17,0,0,0,2-4.58c0-3.59-2.61-6-7-6H179.59V21.9h2V37.42c0,1.8.79,2.59,2.4,2.59h5.84c4.62,0,7.84-2.59,7.84-6.77A5.36,5.36,0,0,0,194.68,28.28Zm-8.25-6.38h3.22a2,2,0,0,1,2.22,2.2,2.15,2.15,0,0,1-2.22,2.38h-3.22Zm3.62,13.74h-3.41c-.21,0-.21,0-.21-.21v-5h3.62a2.43,2.43,0,0,1,2.63,2.59A2.43,2.43,0,0,1,190.05,35.64Z" fill="#ed1c24" fill-rule="evenodd"/>
    <path d="M218.83,35.64c-.42,0-.42,0-.61-.21l-6.44-17.71H207l-6.44,17.71c-.19.21-.19.21-.61.21h-1V40h3a2.49,2.49,0,0,0,2.8-2l1.42-3.59h6.42L214,38a2.49,2.49,0,0,0,2.8,2h3V35.64Zm-9.15-5.37h-2.32l.53-1.51.4-1.14.48-1.36.15-.43.05-.14v0l.4-1.14.4,1.14v0l0,.14.15.43.48,1.36.4,1.14.53,1.51Z" fill="#ed1c24" fill-rule="evenodd"/>
    <path d="M249.2,64.29c-.42,0-.42,0-.61-.21l-6.44-17.71h-4.82l-6.44,17.71c-.19.21-.19.21-.61.21h-1v4.37h3a2.49,2.49,0,0,0,2.8-2l1.42-3.59H243l1.42,3.59a2.49,2.49,0,0,0,2.8,2h3V64.29Zm-9.15-5.37h-2.32l.53-1.51.4-1.14.48-1.36.15-.43.05-.14v0l.4-1.14.4,1.14v0l.05.14.15.43.48,1.36.4,1.14.53,1.51Z" fill="#ed1c24" fill-rule="evenodd"/>
    <path id="path3447" d="M131.93,46.37h17.5A2.32,2.32,0,0,1,152,49V64.08c0,.2,0,.2.21.2h1.61v4.38h-4.23c-1.81,0-2.61-.79-2.61-2.59V50.76a.21.21,0,0,0-.21-.21h-8.05V68.66h-4.82V50.55h-2Z" fill="#ed1c24" fill-rule="evenodd"/>
    <path id="path3453" d="M179.2,46.37h4.42c1.61,0,2.41.8,2.41,2.59V64.08c0,.2,0,.2.21.2h5.83V46.37h4.83V64.28h5.83c.21,0,.21,0,.21-.2V49c0-1.79.8-2.59,2.41-2.59h4.43v4.18H208a.21.21,0,0,0-.21.21V66.07c0,1.8-.79,2.59-2.4,2.59H183.82c-1.81,0-2.62-.79-2.62-2.59V50.76s0-.21-.19-.21H179.2Z" fill="#ed1c24" fill-rule="evenodd"/>
    <path id="path3455" d="M213.59,46.37h15.09c1.81,0,2.42.8,2.42,2.39v3.78h-4.43V50.76c0-.21,0-.21-.21-.21h-2.8V68.66h-4.85V50.55H216c-.21,0-.21,0-.21.21v1.78h-4.43V48.76C211.37,47.17,212,46.37,213.59,46.37Z" fill="#ed1c24" fill-rule="evenodd"/>
    <path id="path3461" d="M100.92,27.2c.23-.07.54.08.84.47L115.43,41a1.69,1.69,0,0,1,0,2.59L101.76,57.12c-.3.4-.61.49-.84.37s-.37-.47-.37-1V28.07C100.55,27.58,100.69,27.28,100.92,27.2Z" fill="#ed1c24" fill-rule="evenodd"/>
    <path id="path3463" d="M77.53,5h1l.93.39L93.51,19.31c.6.8.4,1.4-.61,1.4H87.07a1.79,1.79,0,0,0-1.81,1.8V32.84a1.86,1.86,0,0,1-2,1.8H73a1.8,1.8,0,0,1-1.81-1.8V22.51a1.8,1.8,0,0,0-1.82-1.8H63.13c-1,0-1.21-.6-.6-1.4L76.61,5.39Z" fill="#ed1c24" fill-rule="evenodd"/>
    <path id="path3465" d="M55.48,26.9c.26.12.42.47.42,1v29c0,.5-.16.8-.42.9s-.59,0-1-.3L40.6,43.59a1.69,1.69,0,0,1,0-2.59L54.48,27.28C54.89,26.88,55.24,26.78,55.48,26.9Z" fill="#ed1c24" fill-rule="evenodd"/>
    <path id="path3467" d="M73,49.76H83.24a1.85,1.85,0,0,1,2,1.79V62.49a1.84,1.84,0,0,0,1.81,2H92.5c1,0,1.41.59.61,1.19L79.43,79.4a2,2,0,0,1-2.82,0L62.94,65.67c-.81-.6-.41-1.19.59-1.19h5.83a1.84,1.84,0,0,0,1.82-2V51.55A1.79,1.79,0,0,1,73,49.76Z" fill="#ed1c24" fill-rule="evenodd"/>
  </g>
</svg>
